PathFileType	4	(X/Y/Z)	H:\MAC\Pilotos\MDrajagopal3\Trimmed_runO3.trc
DataRate	CameraRate	NumFrames	NumMarkers	Units	OrigDataRate	OrigDataStartFrame	OrigNumFrames
150.00	150.00	       4	78	mm	150.00	62	       123
Frame#	Time	RACR			LACR			C7			CLAV			RASH			RPSH			LASH			LPSH			RUA1			RUA2			RUA3			RLEL			RMEL			RFAsuperior			RFAradius			RFAulna			LUA1			LUA2			LUA3			LLEL			LMEL			LFAsuperior			LFAradius			LFAulna			RASI			LASI			RPSI			LPSI			RTH1			RTH2			RTH3			RLFC			RMFC			RTB1			RTB2			RTB3			RLMAL			RMMAL			RCAL			RTOE			RMT5			LTH1			LTH2			LTH3			LLFC			LMFC			LTB1			LTB2			LTB3			LLMAL			LMMAL			LCAL			LTOE			LMT5			RSJC			LSJC			RHJC			LHJC			RKJC			LKJC			RAJC			LAJC			REJC			LEJC			Mid_ASIS			Mid_PSIS			RASHv			RPSHv			LPSHv			RLFCv			RMFCv			RLMALv			RMMALv			LLFCv			LMFCv			LLMALv			LMMALv			LASHv			
		X1	Y1	Z1	X2	Y2	Z2	X3	Y3	Z3	X4	Y4	Z4	X5	Y5	Z5	X6	Y6	Z6	X7	Y7	Z7	X8	Y8	Z8	X9	Y9	Z9	X10	Y10	Z10	X11	Y11	Z11	X12	Y12	Z12	X13	Y13	Z13	X14	Y14	Z14	X15	Y15	Z15	X16	Y16	Z16	X17	Y17	Z17	X18	Y18	Z18	X19	Y19	Z19	X20	Y20	Z20	X21	Y21	Z21	X22	Y22	Z22	X23	Y23	Z23	X24	Y24	Z24	X25	Y25	Z25	X26	Y26	Z26	X27	Y27	Z27	X28	Y28	Z28	X29	Y29	Z29	X30	Y30	Z30	X31	Y31	Z31	X32	Y32	Z32	X33	Y33	Z33	X34	Y34	Z34	X35	Y35	Z35	X36	Y36	Z36	X37	Y37	Z37	X38	Y38	Z38	X39	Y39	Z39	X40	Y40	Z40	X41	Y41	Z41	X42	Y42	Z42	X43	Y43	Z43	X44	Y44	Z44	X45	Y45	Z45	X46	Y46	Z46	X47	Y47	Z47	X48	Y48	Z48	X49	Y49	Z49	X50	Y50	Z50	X51	Y51	Z51	X52	Y52	Z52	X53	Y53	Z53	X54	Y54	Z54	X55	Y55	Z55	X56	Y56	Z56	X57	Y57	Z57	X58	Y58	Z58	X59	Y59	Z59	X60	Y60	Z60	X61	Y61	Z61	X62	Y62	Z62	X63	Y63	Z63	X64	Y64	Z64	X65	Y65	Z65	X66	Y66	Z66	X67	Y67	Z67	X68	Y68	Z68	X69	Y69	Z69	X70	Y70	Z70	X71	Y71	Z71	X72	Y72	Z72	X73	Y73	Z73	X74	Y74	Z74	X75	Y75	Z75	X76	Y76	Z76	X77	Y77	Z77	X78	Y78	Z78	

62	0.407	1135.63623	1413.89856	-47.71375	1066.44360	1437.51257	-358.49496	1040.99390	1436.27161	-194.18370	1188.28735	1376.23901	-189.78381													1160.84131	1301.35925	25.94068	1195.45068	1228.44238	26.74827	1101.85620	1210.07617	59.22744	1146.00415	1154.50989	75.96774	1105.74500	1131.57678	0.01297	1239.91333	1138.75000	-22.41427	1289.32092	1117.58337	-88.06450	1315.55090	1061.17859	-50.59832	999.41321	1405.32727	-426.76685	961.84637	1330.18689	-463.94714	900.63470	1356.00378	-401.82928	884.24780	1305.82690	-480.44769	851.95703	1274.28076	-403.45825	960.04962	1195.16589	-487.23672	999.69440	1127.08899	-449.02814	966.47583	1096.22839	-507.10477	1125.53503	904.74756	-86.96516	1156.89050	902.61554	-312.09451	973.25232	952.34735	-184.10489	978.23346	950.12524	-267.40134	989.66132	818.44299	-55.51694	904.81696	689.86401	-102.80959	951.46753	636.46301	-60.05692							831.45911	393.69971	-125.78605	747.63910	462.27209	-94.57541	674.58490	357.52527	-130.32988							535.92279	364.24088	-235.43369	506.25964	208.19052	-160.27715	528.98712	169.08078	-186.86430	1095.47632	816.99902	-389.14508	1095.20654	657.24286	-357.00360	1171.72742	597.16321	-366.65097							1290.66907	411.80869	-295.88089	1209.95007	324.93207	-337.26669	1318.93726	234.05284	-303.64914							1271.49109	96.79433	-237.47433	1464.37244	70.28948	-262.42416	1435.46069	48.97618	-290.74884																									1125.87463	1143.04333	37.99036	868.10242	1290.05383	-441.95297	1141.21277	903.68158	-199.52983	975.74286	951.23633	-225.75311	1241.18884	1301.01160	-52.67215	1138.31885	1343.71472	-12.12527	1099.47046	1443.54004	-414.19153	875.66730	543.15399	-72.60619	946.59247	488.69110	-175.84502	541.43732	309.91937	-139.29175	586.01422	272.56625	-210.14554	1205.70898	544.59027	-393.07346	1225.55249	534.81775	-261.82095	1334.44519	106.54366	-305.60822	1380.18213	149.73322	-238.50296	1130.65942	1377.08582	-484.48013	
63	0.413	1153.77100	1409.10059	-47.24968	1083.91675	1431.02344	-359.17142	1059.22131	1431.84192	-194.84404	1206.43884	1371.54504	-189.55426													1176.40295	1295.75378	26.85203	1209.25671	1221.26550	26.35962	1115.66943	1205.94043	59.48901	1158.83240	1149.43066	76.80150	1118.93909	1126.82275	0.77241	1254.01550	1128.12012	-19.87640	1303.67224	1104.10791	-84.34634	1326.83948	1047.31396	-45.55178	1016.87878	1396.53198	-427.58057	980.42181	1319.54236	-463.32297	918.75745	1345.13147	-401.50204	903.47504	1293.64539	-479.40430	872.14679	1262.05078	-401.89948	981.98883	1185.12219	-485.64194	1023.86591	1118.78015	-446.94983	990.91187	1086.43860	-504.46982	1145.80273	901.31384	-87.03603	1176.11731	899.49530	-312.84430	992.60510	947.06232	-183.86426	997.53015	944.74255	-267.13742	1011.36438	813.45160	-54.32802	928.44446	682.22333	-100.12911	976.65863	630.21307	-57.32978							856.04395	388.73706	-123.39407	774.59930	459.39185	-91.33461	697.93024	358.36377	-128.90228							559.47833	370.47354	-235.48897	547.82617	175.88913	-186.19246	526.10797	215.60045	-159.74846	1114.02747	813.36707	-389.32825	1114.00574	653.42175	-355.31723	1189.79846	593.94025	-364.23526							1305.35608	404.70358	-295.02576	1219.91309	319.23492	-333.98962	1327.05847	225.27588	-301.19220							1275.86707	90.03232	-233.63959	1467.79773	58.18653	-257.79010	1438.36218	36.68498	-285.88684																									1138.88574	1138.12671	38.78695	887.81091	1277.84802	-440.65189	1160.96008	900.40454	-199.94017	995.06763	945.90247	-225.50084	1255.83765	1294.37610	-52.67179	1154.65796	1339.19971	-10.42896	1116.22754	1436.90491	-416.19324	902.96521	535.74231	-68.39520	974.11694	481.98181	-171.84612	563.43854	314.96265	-139.31824	607.01770	277.36804	-210.66327	1224.65601	541.09229	-390.31799	1244.57422	532.79047	-258.97559	1338.41040	98.00906	-301.62766	1387.02173	140.42528	-236.06755	1148.41309	1369.70288	-485.31186	
64	0.420	1171.75134	1403.82019	-46.66445	1101.40674	1424.01721	-359.89029	1077.38184	1426.88464	-195.61191	1224.57922	1366.28845	-189.17554													1191.83435	1289.77637	27.85727	1221.49377	1213.61816	25.78847	1129.35889	1201.37280	59.85398	1171.73816	1144.06824	78.02654	1131.76038	1121.56897	1.55476	1267.53088	1117.20984	-17.29281	1317.16467	1090.10107	-80.61428	1337.47327	1032.96143	-40.00513	1034.61389	1387.05664	-428.48999	999.40564	1308.04651	-462.94025	936.98022	1333.59937	-401.58337	923.15619	1280.62683	-478.63400	893.06561	1248.90869	-400.58530	1004.41077	1174.33276	-484.14517	1048.52380	1109.92896	-444.76166	1015.94177	1075.97327	-501.53229	1166.02209	897.50812	-87.10900	1195.51196	896.61005	-313.25250	1012.06781	941.34808	-183.39256	1016.89575	939.07568	-266.80103	1033.16101	807.76672	-53.73785	952.25812	673.98138	-97.47218	1001.90668	623.54449	-54.44639							881.21588	383.45941	-121.13407	802.12384	456.03946	-87.91457	722.30914	358.67053	-127.82870							583.99091	375.99423	-235.36009	568.90869	181.73338	-185.00018	547.72461	222.08124	-158.99939	1132.52734	809.66632	-389.30725	1132.33630	649.52563	-354.10272	1207.65833	590.67407	-362.66074							1319.45618	396.57538	-294.51733	1230.31104	313.05801	-329.89847	1334.36060	216.10370	-298.71835							1278.47937	83.42666	-227.77373	1469.54724	45.69777	-252.52232	1438.19128	26.45851	-282.35339																									1151.74927	1132.81860	39.79065	908.11090	1264.76770	-439.60965	1180.76697	897.05908	-200.18074	1014.48181	940.21185	-225.09680	1269.70679	1287.69153	-53.18196	1171.40393	1334.65637	-8.45591	1133.15393	1429.56970	-417.89169	930.21179	527.81549	-63.71181	1001.58344	474.27591	-167.12578	586.37695	319.91040	-139.72746	628.99042	282.39420	-211.69440	1242.87061	537.27545	-388.42102	1262.77527	529.85559	-257.02380	1342.96716	88.94071	-296.93704	1394.56348	130.85432	-233.36507	1166.68591	1361.61157	-485.61697	
65	0.427	1189.47937	1398.12207	-46.01134	1119.11023	1416.51111	-360.72330	1095.51648	1421.37585	-196.35399	1242.75464	1360.47583	-188.63487													1207.08447	1283.40381	28.85443	1234.31616	1205.90710	24.87590	1142.99695	1196.38428	60.32364	1184.18579	1138.37927	78.86239	1144.54895	1115.91443	2.39299	1280.61011	1105.90198	-14.53184	1330.25928	1074.97034	-76.22046	1347.56531	1018.14929	-34.16679	1052.65308	1376.79126	-429.42355	1018.83777	1295.72375	-462.71204	955.51971	1321.34094	-402.00369	943.30371	1266.72461	-478.02979	913.73865	1235.54236	-399.33691	1027.40100	1162.79529	-482.59412	1073.53564	1100.57910	-442.43158	1041.52588	1064.94849	-498.53485	1186.23999	893.08295	-87.36495	1214.97363	893.38190	-313.84927	1031.45410	935.35767	-182.79659	1036.05371	933.16479	-266.29681	1054.95593	801.62720	-53.02005	976.38806	665.25452	-95.04658	1027.31799	616.40613	-51.54976							907.19971	376.99603	-116.44957	830.06427	452.33432	-84.37573	747.27338	358.53845	-125.15601							609.55542	380.66559	-234.85100	570.55042	227.94371	-157.73434	591.24231	186.96349	-183.38516	1151.15137	805.83905	-389.17612	1150.11108	645.14636	-353.61865	1225.17566	586.90338	-361.62302							1333.11194	387.63950	-294.62381	1240.08887	307.86761	-327.01453	1339.57776	206.44992	-295.43848							1279.68213	74.62652	-225.13560	1473.08630	39.21296	-248.01942	1439.32019	25.78657	-283.20428																									1164.36743	1127.14685	40.62769	928.52118	1251.13342	-438.68335	1200.60681	893.23242	-200.60712	1033.75391	934.26123	-224.54669	1283.25769	1280.77588	-53.76847	1187.46204	1329.56738	-6.27607	1150.30334	1421.41650	-419.28220	957.72070	519.53564	-59.37344	1029.81311	466.26410	-162.42529	610.67102	323.56769	-139.47816	653.05121	284.58899	-210.80269	1260.54565	533.07300	-386.98856	1279.32507	525.77106	-255.41919	1342.60864	79.26408	-291.14178	1396.95007	120.01588	-229.12064	1185.44653	1352.77917	-485.48862	
